HIERARCHY
ROOT hip
{
  OFFSET 0 0 0
  CHANNELS 6 Xposition Yposition Zposition Zrotation Yrotation Xrotation
  JOINT abdomen
  {
    OFFSET 0 20.6881 -0.73152
    CHANNELS 3 Zrotation Xrotation Yrotation
    JOINT chest
    {
      OFFSET 0 11.7043 -0.48768
      CHANNELS 3 Zrotation Xrotation Yrotation
      JOINT neck
      {
        OFFSET 0 22.1894 -2.19456
        CHANNELS 3 Zrotation Xrotation Yrotation
        JOINT head
        {
          OFFSET -0.24384 7.07133 1.2192
          CHANNELS 3 Zrotation Xrotation Yrotation
          JOINT leftEye
          {
            OFFSET 4.14528 8.04674 8.04672
            CHANNELS 3 Zrotation Xrotation Yrotation
            End Site
            {
              OFFSET 1 0 0
            }
          }
          JOINT rightEye
          {
            OFFSET -3.6576 8.04674 8.04672
            CHANNELS 3 Zrotation Xrotation Yrotation
            End Site
            {
              OFFSET 1 0 0
            }
          }
        }
      }
      JOINT rCollar
      {
        OFFSET -2.68224 19.2634 -4.8768
        CHANNELS 3 Zrotation Xrotation Yrotation
        JOINT rShldr
        {
          OFFSET -8.77824 -1.95073 1.46304
          CHANNELS 3 Zrotation Xrotation Yrotation
          JOINT rForeArm
          {
            OFFSET -28.1742 -1.7115 0.48768
            CHANNELS 3 Zrotation Xrotation Yrotation
            JOINT rHand
            {
              OFFSET -22.5879 0.773209 7.07136
              CHANNELS 3 Zrotation Xrotation Yrotation
              JOINT rThumb1
              {
                OFFSET -1.2192 -0.487915 3.41376
                CHANNELS 3 Zrotation Xrotation Yrotation
                JOINT rThumb2
                {
                  OFFSET -3.37035 -0.52449 3.41376
                  CHANNELS 3 Zrotation Xrotation Yrotation
                  End Site
                  {
                    OFFSET -1.78271 -1.18214 1.43049
                  }
                }
              }
              JOINT rIndex1
              {
                OFFSET -7.75947 0.938293 5.60832
                CHANNELS 3 Zrotation Xrotation Yrotation
                JOINT rIndex2
                {
                  OFFSET -2.54057 -0.884171 1.56538
                  CHANNELS 3 Zrotation Xrotation Yrotation
                  End Site
                  {
                    OFFSET -1.62519 -0.234802 1.16502
                  }
                }
              }
              JOINT rMid1
              {
                OFFSET -8.24714 1.18213 3.41376
                CHANNELS 3 Zrotation Xrotation Yrotation
                JOINT rMid2
                {
                  OFFSET -3.10165 -0.590103 1.0647
                  CHANNELS 3 Zrotation Xrotation Yrotation
                  End Site
                  {
                    OFFSET -2.48547 -0.328903 0.83742
                  }
                }
              }
              JOINT rRing1
              {
                OFFSET -8.82822 0.546677 1.51678
                CHANNELS 3 Zrotation Xrotation Yrotation
                JOINT rRing2
                {
                  OFFSET -2.60934 -0.819778 -0.0198488
                  CHANNELS 3 Zrotation Xrotation Yrotation
                  End Site
                  {
                    OFFSET -2.33842 -0.294052 0.168128
                  }
                }
              }
              JOINT rPinky1
              {
                OFFSET -8.27202 -0.0477905 -0.4584
                CHANNELS 3 Zrotation Xrotation Yrotation
                JOINT rPinky2
                {
                  OFFSET -1.82734 -0.647385 -0.700984
                  CHANNELS 3 Zrotation Xrotation Yrotation
                  End Site
                  {
                    OFFSET -1.69225 -0.51767 -0.607171
                  }
                }
              }
            }
          }
        }
      }
      JOINT lCollar
      {
        OFFSET 2.68224 19.2634 -4.8768
        CHANNELS 3 Zrotation Xrotation Yrotation
        JOINT lShldr
        {
          OFFSET 8.77824 -1.95073 1.46304
          CHANNELS 3 Zrotation Xrotation Yrotation
          JOINT lForeArm
          {
            OFFSET 28.1742 -1.7115 0.48768
            CHANNELS 3 Zrotation Xrotation Yrotation
            JOINT lHand
            {
              OFFSET 22.5879 0.773209 7.07136
              CHANNELS 3 Zrotation Xrotation Yrotation
              JOINT lThumb1
              {
                OFFSET 1.2192 -0.487915 3.41376
                CHANNELS 3 Zrotation Xrotation Yrotation
                JOINT lThumb2
                {
                  OFFSET 3.37035 -0.52449 3.41376
                  CHANNELS 3 Zrotation Xrotation Yrotation
                  End Site
                  {
                    OFFSET 1.78271 -1.18214 1.43049
                  }
                }
              }
              JOINT lIndex1
              {
                OFFSET 7.75947 0.938293 5.60832
                CHANNELS 3 Zrotation Xrotation Yrotation
                JOINT lIndex2
                {
                  OFFSET 2.54057 -0.884171 1.56538
                  CHANNELS 3 Zrotation Xrotation Yrotation
                  End Site
                  {
                    OFFSET 1.62519 -0.234802 1.16502
                  }
                }
              }
              JOINT lMid1
              {
                OFFSET 8.24714 1.18213 3.41376
                CHANNELS 3 Zrotation Xrotation Yrotation
                JOINT lMid2
                {
                  OFFSET 3.10165 -0.590103 1.0647
                  CHANNELS 3 Zrotation Xrotation Yrotation
                  End Site
                  {
                    OFFSET 2.48547 -0.328903 0.83742
                  }
                }
              }
              JOINT lRing1
              {
                OFFSET 8.82822 0.546677 1.51678
                CHANNELS 3 Zrotation Xrotation Yrotation
                JOINT lRing2
                {
                  OFFSET 2.60934 -0.819778 -0.0198488
                  CHANNELS 3 Zrotation Xrotation Yrotation
                  End Site
                  {
                    OFFSET 2.33842 -0.294052 0.168128
                  }
                }
              }
              JOINT lPinky1
              {
                OFFSET 8.27202 -0.0477905 -0.4584
                CHANNELS 3 Zrotation Xrotation Yrotation
                JOINT lPinky2
                {
                  OFFSET 1.82734 -0.647385 -0.700984
                  CHANNELS 3 Zrotation Xrotation Yrotation
                  End Site
                  {
                    OFFSET 1.69225 -0.51767 -0.607171
                  }
                }
              }
            }
          }
        }
      }
    }
  }
  JOINT rButtock
  {
    OFFSET -8.77824 4.35084 1.2192
    CHANNELS 3 Zrotation Xrotation Yrotation
    JOINT rThigh
    {
      OFFSET 0 -1.70687 -2.19456
      CHANNELS 3 Zrotation Xrotation Yrotation
      JOINT rShin
      {
        OFFSET 0 -36.8199 0.73152
        CHANNELS 3 Zrotation Xrotation Yrotation
        JOINT rFoot
        {
          OFFSET 0.73152 -45.1104 -5.12064
          CHANNELS 3 Zrotation Xrotation Yrotation
          End Site
          {
            OFFSET -1.1221 -3.69964 12.103
          }
        }
      }
    }
  }
  JOINT lButtock
  {
    OFFSET 8.77824 4.35084 1.2192
    CHANNELS 3 Zrotation Xrotation Yrotation
    JOINT lThigh
    {
      OFFSET 0 -1.70687 -2.19456
      CHANNELS 3 Zrotation Xrotation Yrotation
      JOINT lShin
      {
        OFFSET 0 -36.8199 0.73152
        CHANNELS 3 Zrotation Xrotation Yrotation
        JOINT lFoot
        {
          OFFSET -0.73152 -45.1104 -5.12064
          CHANNELS 3 Zrotation Xrotation Yrotation
          End Site
          {
            OFFSET 1.1221 -3.69964 12.103
          }
        }
      }
    }
  }
}
MOTION
Frames:	9
Frame Time:	0.00833333
52.5877 82.9415 -145.329 -0.3425 -26.6581 11.0493 -11.3808 24.295 2.82866 3.40134 -8.45812 0.309257 -7.49809 -4.83621 -2.16969 10.1157 3.29747 -1.96427 -0.0 0.0 0.0 -0.0 0.0 0.0 -1.62617e-13 -7.00923e-16 4.94501e-13 80.2835 12.7226 0.309455 -13.3397 -6.43407 24.2343 -0.276145 14.792 2.12684 -5.76294e-10 9.43194e-10 2.06918e-09 -9.69449e-10 1.63782e-09 3.58304e-09 -5.76286e-10 9.43194e-10 2.06918e-09 7.73091 5.47488 0.417314 -5.76294e-10 9.43194e-10 2.06918e-09 2.90554 0.965183 0.102902 -5.76288e-10 9.43192e-10 2.06918e-09 10.2786 0.731801 0.0259123 -5.76299e-10 9.43192e-10 2.06918e-09 2.22167 -0.733487 -0.20892 -1.62625e-13 -6.90728e-16 4.9428e-13 -74.9125 -4.702 -22.0501 9.39517 -3.78214 -16.6716 0.191068 12.3495 -1.76335 -1.27341e-09 -1.70757e-09 -6.06078e-10 -2.20573e-09 -2.94728e-09 -1.03308e-09 -1.27341e-09 -1.70756e-09 -6.06074e-10 -7.73091 5.47488 -0.417314 -1.27342e-09 -1.70757e-09 -6.06085e-10 -2.90554 0.965183 -0.102902 -1.27341e-09 -1.70756e-09 -6.06078e-10 -10.2786 0.731801 -0.0259123 -1.27341e-09 -1.70756e-09 -6.06087e-10 -2.22167 -0.733487 0.20892 -2.03217e-16 0.0 -3.88251e-19 0.89778 -38.5961 8.66785 -1.4317 64.663 1.868 -3.67905 -9.21359 -11.4801 2.03217e-16 0.0 3.88251e-19 -4.61632 -22.3446 -2.04249 0.23102 38.9961 -0.921067 7.18521 -26.479 12.9992
52.4778 82.8571 -144.452 -0.148 -26.6533 11.0153 -11.3307 24.4081 2.53394 3.53115 -8.42486 0.240097 -7.39072 -5.00934 -2.10424 9.92066 3.3536 -1.8527 -0.0 0.0 0.0 -0.0 0.0 0.0 -1.52641e-13 9.22268e-14 5.40794e-13 80.311 12.3338 0.232969 -13.2559 -6.3694 24.0686 -0.279468 14.8792 2.13995 -4.45935e-10 1.48173e-09 3.56505e-10 -7.64508e-10 2.56392e-09 6.20021e-10 -4.4593e-10 1.48173e-09 3.56499e-10 7.73091 5.47488 0.417314 -4.45934e-10 1.48173e-09 3.56508e-10 2.90554 0.965183 0.102902 -4.4593e-10 1.48173e-09 3.56504e-10 10.2786 0.731801 0.0259123 -4.45941e-10 1.48173e-09 3.56505e-10 2.22167 -0.733487 -0.20892 -1.52653e-13 9.22452e-14 5.40595e-13 -74.1997 -3.68355 -22.6287 9.62996 -3.91946 -17.1093 0.15968 11.3162 -1.61161 -1.25128e-09 -8.67471e-10 6.71568e-10 -2.15198e-09 -1.48657e-09 1.17246e-09 -1.25128e-09 -8.67466e-10 6.71571e-10 -7.73091 5.47488 -0.417314 -1.25129e-09 -8.67475e-10 6.71558e-10 -2.90554 0.965183 -0.102902 -1.25128e-09 -8.67468e-10 6.71568e-10 -10.2786 0.731801 -0.0259123 -1.25128e-09 -8.67467e-10 6.71558e-10 -2.22167 -0.733487 0.20892 -2.03217e-16 0.0 -3.88251e-19 1.17906 -39.2951 8.84262 -1.38784 64.228 1.84171 -3.818 -10.1104 -11.4054 2.03217e-16 0.0 3.88251e-19 -4.94079 -21.6941 -2.19417 0.225005 38.8954 -0.951375 7.54539 -26.6968 13.5631
52.3191 82.7738 -143.529 -0.0631 -26.7492 10.923 -11.3062 24.5079 2.27113 3.63419 -8.35843 0.174967 -7.17332 -5.29955 -2.00205 9.62501 3.58355 -1.70885 -0.0 0.0 0.0 -0.0 0.0 0.0 -1.83574e-13 9.35644e-14 5.39502e-13 80.3749 11.9279 0.152334 -13.1875 -6.31699 23.9333 -0.284169 15.0008 2.15826 -1.0897e-10 1.93628e-09 -2.83321e-10 -1.90129e-10 3.34745e-09 -4.91184e-10 -1.08965e-10 1.93628e-09 -2.8333e-10 7.73091 5.47488 0.417314 -1.0897e-10 1.93627e-09 -2.83319e-10 2.90554 0.965183 0.102902 -1.08967e-10 1.93627e-09 -2.83321e-10 10.2786 0.731801 0.0259123 -1.08976e-10 1.93628e-09 -2.83318e-10 2.22167 -0.733487 -0.20892 -1.83654e-13 9.35908e-14 5.3931e-13 -73.3844 -2.65301 -23.1776 9.83486 -4.04029 -17.494 0.131085 10.2697 -1.45921 -1.02421e-09 -1.18026e-10 1.48449e-09 -1.75292e-09 -1.8755e-10 2.5748e-09 -1.02421e-09 -1.18022e-10 1.48449e-09 -7.73091 5.47488 -0.417314 -1.02422e-09 -1.18031e-10 1.48448e-09 -2.90554 0.965183 -0.102902 -1.02421e-09 -1.18024e-10 1.48449e-09 -10.2786 0.731801 -0.0259123 -1.0242e-09 -1.18024e-10 1.48448e-09 -2.22167 -0.733487 0.20892 -2.03217e-16 0.0 -3.88251e-19 1.47564 -39.9414 9.07527 -1.34054 63.7259 1.80964 -3.91341 -10.9264 -11.2521 2.03217e-16 0.0 3.88251e-19 -5.29035 -20.9554 -2.3837 0.217716 38.7273 -0.980246 7.94041 -26.8683 14.202
52.1046 82.6592 -142.581 -0.1782 -27.1273 10.9019 -11.2912 24.6117 2.02286 3.71904 -8.26684 0.110563 -6.89113 -5.66093 -1.87668 9.2718 3.90569 -1.54166 -0.0 0.0 0.0 -0.0 0.0 0.0 -2.35061e-13 4.57028e-14 5.00639e-13 80.4574 11.4979 0.0779059 -13.1275 -6.27147 23.8147 -0.289481 15.1367 2.17875 3.78884e-10 2.37224e-09 -4.75045e-10 6.50122e-10 4.09994e-09 -8.2988e-10 3.7889e-10 2.37224e-09 -4.75058e-10 7.73091 5.47488 0.417314 3.78883e-10 2.37224e-09 -4.75046e-10 2.90554 0.965183 0.102902 3.78886e-10 2.37224e-09 -4.75043e-10 10.2786 0.731801 0.0259123 3.78879e-10 2.37224e-09 -4.75038e-10 2.22167 -0.733487 -0.20892 -2.35254e-13 4.57371e-14 5.00447e-13 -72.4963 -1.62627 -23.7107 10.0181 -4.14992 -17.8393 0.105287 9.23817 -1.3098 -6.62557e-10 6.88452e-10 2.1573e-09 -1.12498e-09 1.20783e-09 3.73484e-09 -6.62553e-10 6.88459e-10 2.1573e-09 -7.73091 5.47488 -0.417314 -6.62558e-10 6.8845e-10 2.15729e-09 -2.90554 0.965183 -0.102902 -6.6256e-10 6.88454e-10 2.1573e-09 -10.2786 0.731801 -0.0259123 -6.62551e-10 6.88454e-10 2.15729e-09 -2.22167 -0.733487 0.20892 -2.03217e-16 0.0 -3.88251e-19 1.77491 -40.5296 9.33988 -1.28926 63.148 1.77187 -3.97598 -11.7016 -11.0387 2.03217e-16 0.0 3.88251e-19 -5.65491 -20.1396 -2.60042 0.209037 38.4966 -1.0075 8.36776 -26.9861 14.9143
51.9229 82.6248 -141.592 -0.1024 -27.343 10.8852 -11.2914 24.7162 1.79195 3.80345 -8.17393 0.0498959 -6.62842 -5.97244 -1.75643 8.96143 4.14941 -1.37731 -0.0 0.0 0.0 -0.0 0.0 0.0 -2.75522e-13 -9.90969e-15 4.37326e-13 80.5475 11.051 0.00412534 -13.0785 -6.23439 23.7177 -0.294094 15.2529 2.19631 8.20863e-10 2.69675e-09 -5.37738e-10 1.4126e-09 4.66007e-09 -9.44713e-10 8.20872e-10 2.69675e-09 -5.37755e-10 7.73091 5.47488 0.417314 8.20862e-10 2.69675e-09 -5.37742e-10 2.90554 0.965183 0.102902 8.20864e-10 2.69675e-09 -5.37735e-10 10.2786 0.731801 0.0259123 8.20859e-10 2.69675e-09 -5.37727e-10 2.22167 -0.733487 -0.20892 -2.75816e-13 -9.87084e-15 4.3713e-13 -71.5994 -0.654078 -24.2454 10.2137 -4.27007 -18.2062 0.083631 8.25533 -1.16829 -2.84482e-10 1.39733e-09 2.63201e-09 -4.71004e-10 2.433e-09 4.55269e-09 -2.84476e-10 1.39734e-09 2.63202e-09 -7.73091 5.47488 -0.417314 -2.84476e-10 1.39733e-09 2.63201e-09 -2.90554 0.965183 -0.102902 -2.84487e-10 1.39733e-09 2.63201e-09 -10.2786 0.731801 -0.0259123 -2.84475e-10 1.39733e-09 2.632e-09 -2.22167 -0.733487 0.20892 -2.03217e-16 0.0 -3.88251e-19 2.07674 -41.1075 9.6504 -1.23567 62.5072 1.73035 -4.02404 -12.4419 -10.8205 2.03217e-16 0.0 3.88251e-19 -6.00074 -19.3038 -2.78293 0.199558 38.2164 -1.03245 8.7682 -27.0467 15.5956
51.738 82.5528 -140.693 -0.0497 -27.5627 10.9623 -11.3122 24.8185 1.58127 3.90503 -8.10354 -0.0040432 -6.47106 -6.11302 -1.6697 8.79664 4.14405 -1.24213 -0.0 0.0 0.0 -0.0 0.0 0.0 -2.73373e-13 -3.18246e-14 3.62683e-13 80.6339 10.5943 -0.0745416 -13.0427 -6.20733 23.6471 -0.296621 15.3157 2.20581 1.02021e-09 2.81695e-09 -7.90473e-10 1.75365e-09 4.86653e-09 -1.38433e-09 1.02022e-09 2.81695e-09 -7.90492e-10 7.73091 5.47488 0.417314 1.0202e-09 2.81695e-09 -7.90479e-10 2.90554 0.965183 0.102902 1.02021e-09 2.81695e-09 -7.9047e-10 10.2786 0.731801 0.0259123 1.0202e-09 2.81695e-09 -7.9046e-10 2.22167 -0.733487 -0.20892 -2.73701e-13 -3.17881e-14 3.62484e-13 -70.7583 0.213238 -24.7974 10.4542 -4.42197 -18.656 0.0668104 7.35501 -1.03945 -8.1454e-12 1.85397e-09 2.85063e-09 6.14801e-12 3.2214e-09 4.92844e-09 -8.13983e-12 1.85398e-09 2.85064e-09 -7.73091 5.47488 -0.417314 -8.13631e-12 1.85397e-09 2.85063e-09 -2.90554 0.965183 -0.102902 -8.15212e-12 1.85397e-09 2.85063e-09 -10.2786 0.731801 -0.0259123 -8.13824e-12 1.85397e-09 2.85062e-09 -2.22167 -0.733487 0.20892 -2.03217e-16 0.0 -3.88251e-19 2.38303 -41.7223 10.0224 -1.18123 61.8166 1.68681 -4.07883 -13.1524 -10.653 2.03217e-16 0.0 3.88251e-19 -6.29863 -18.5048 -2.8712 0.189932 37.8998 -1.05444 9.08132 -27.0487 16.1417
51.5147 82.4995 -139.826 -0.1041 -27.9106 11.1609 -11.3752 24.9199 1.41563 4.03532 -8.06627 -0.0443724 -6.47295 -6.00386 -1.63374 8.84707 3.75973 -1.15048 -0.0 0.0 0.0 -0.0 0.0 0.0 -1.9791e-13 5.80315e-15 2.61972e-13 80.7135 10.1198 -0.158361 -13.0269 -6.19532 23.616 -0.296392 15.3096 2.20488 8.1301e-10 2.72332e-09 -1.50301e-09 1.38687e-09 4.70221e-09 -2.61252e-09 8.13019e-10 2.72333e-09 -1.50303e-09 7.73091 5.47488 0.417314 8.13008e-10 2.72332e-09 -1.50301e-09 2.90554 0.965183 0.102902 8.13012e-10 2.72332e-09 -1.50301e-09 10.2786 0.731801 0.0259123 8.13006e-10 2.72333e-09 -1.503e-09 2.22167 -0.733487 -0.20892 -1.98161e-13 5.82472e-15 2.61776e-13 -70.0082 0.962163 -25.3762 10.772 -4.62712 -19.2519 0.052734 6.51796 -0.920156 1.23796e-10 2.00215e-09 2.73784e-09 2.3246e-10 3.47562e-09 4.73208e-09 1.23799e-10 2.00216e-09 2.73785e-09 -7.73091 5.47488 -0.417314 1.23803e-10 2.00215e-09 2.73783e-09 -2.90554 0.965183 -0.102902 1.2379e-10 2.00215e-09 2.73783e-09 -10.2786 0.731801 -0.0259123 1.23804e-10 2.00215e-09 2.73783e-09 -2.22167 -0.733487 0.20892 -2.03217e-16 0.0 -3.88251e-19 2.7082 -42.4036 10.4832 -1.12602 61.0699 1.6413 -4.14663 -13.8437 -10.5426 2.03217e-16 0.0 3.88251e-19 -6.53798 -17.7714 -2.81069 0.180273 37.5484 -1.07332 9.28633 -26.9813 16.5236
51.3303 82.4522 -138.944 0.1053 -28.0768 11.2043 -11.4711 25.0216 1.28562 4.1825 -8.04802 -0.0747326 -6.57881 -5.72503 -1.63026 9.0458 3.11557 -1.08611 -0.0 0.0 0.0 -0.0 0.0 0.0 -7.34043e-14 7.59369e-14 1.34276e-13 80.7921 9.62693 -0.244769 -13.0279 -6.19608 23.618 -0.294208 15.2546 2.19658 3.41361e-10 2.46032e-09 -2.44361e-09 5.60458e-10 4.2445e-09 -4.23085e-09 3.41369e-10 2.46032e-09 -2.44363e-09 7.73091 5.47488 0.417314 3.4136e-10 2.46032e-09 -2.44362e-09 2.90554 0.965183 0.102902 3.41366e-10 2.46032e-09 -2.44361e-09 10.2786 0.731801 0.0259123 3.41356e-10 2.46033e-09 -2.44361e-09 2.22167 -0.733487 -0.20892 -7.35055e-14 7.59344e-14 1.34083e-13 -69.3122 1.62078 -25.9692 11.1383 -4.8673 -19.946 0.0403526 5.73563 -0.808871 1.78076e-10 1.92935e-09 2.34452e-09 3.22762e-10 3.34662e-09 4.05134e-09 1.78076e-10 1.92935e-09 2.34453e-09 -7.73091 5.47488 -0.417314 1.78079e-10 1.92935e-09 2.34451e-09 -2.90554 0.965183 -0.102902 1.78072e-10 1.92935e-09 2.34451e-09 -10.2786 0.731801 -0.0259123 1.78085e-10 1.92935e-09 2.34451e-09 -2.22167 -0.733487 0.20892 -2.03217e-16 0.0 -3.88251e-19 3.05419 -43.1187 11.0222 -1.0702 60.2635 1.59384 -4.21829 -14.5097 -10.4623 2.03217e-16 0.0 3.88251e-19 -6.74239 -17.0682 -2.64845 0.17026 37.156 -1.08946 9.4139 -26.8513 16.7961
51.1433 82.4053 -138.012 0.3161 -28.2565 11.1777 -11.559 25.1197 1.1427 4.32924 -8.03548 -0.107918 -6.71123 -5.39375 -1.63435 9.29113 2.41437 -1.02933 -0.0 0.0 0.0 -0.0 0.0 0.0 4.92625e-14 1.40703e-13 1.34393e-14 80.8716 9.1342 -0.335042 -13.0331 -6.20008 23.6282 -0.290879 15.1707 2.1839 -1.32531e-10 2.016e-09 -3.17913e-09 -2.67317e-10 3.47387e-09 -5.49462e-09 -1.32524e-10 2.016e-09 -3.17914e-09 7.73091 5.47488 0.417314 -1.32532e-10 2.01599e-09 -3.17914e-09 2.90554 0.965183 0.102902 -1.32522e-10 2.016e-09 -3.17913e-09 10.2786 0.731801 0.0259123 -1.32536e-10 2.016e-09 -3.17913e-09 2.22167 -0.733487 -0.20892 4.9312e-14 1.40678e-13 1.32475e-14 -68.6279 2.20172 -26.5584 11.496 -5.10478 -20.6331 0.0309562 5.0579 -0.712687 2.00623e-10 1.69644e-09 1.80197e-09 3.57476e-10 2.94031e-09 3.11299e-09 2.00619e-10 1.69644e-09 1.80199e-09 -7.73091 5.47488 -0.417314 2.00621e-10 1.69644e-09 1.80196e-09 -2.90554 0.965183 -0.102902 2.0062e-10 1.69644e-09 1.80197e-09 -10.2786 0.731801 -0.0259123 2.00632e-10 1.69644e-09 1.80196e-09 -2.22167 -0.733487 0.20892 -2.03217e-16 0.0 -3.88251e-19 3.40249 -43.8219 11.5978 -1.01507 59.4141 1.54585 -4.29424 -15.1299 -10.4193 2.03217e-16 0.0 3.88251e-19 -6.93335 -16.357 -2.4766 0.159936 36.7234 -1.10303 9.48172 -26.6847 16.9811
